<?xml version="1.0" encoding="UTF-8"?>
<svg width="240" height="60" xmlns="http://www.w3.org/2000/svg">
	<g stroke-width="2" stroke="#000">
		<circle cx="30" cy="30" r="29" fill="none" />
		<path stroke-linecap="round" stroke-miterlimit="1" d="M 34,15 L 22,15 A 3,3 0,0,0 19,18 L 19,42 A 3,3 0,0,0 22,45 L 38,45 A 3,3 0,0,0 41,42 L 41,22 L 34,15" fill="#eee" />
		<path stroke-linecap="round" stroke-miterlimit="1" d="M 41,22 L 37,22 A 3,3 0,0,1 34,19 L 34,15" fill="none" />
	</g>
	<g stroke-width="2" stroke="#000" transform="translate(60)">
		<circle cx="30" cy="30" r="29" fill="none" />
		<rect x="15" y="18" width="30" height="24" rx="3" fill="#eee" />
		<path d="M 16.25,19 L 27.5,29 Q 30,31 32.5,29 L 43.75,19" fill="none" />
	</g>
	<g stroke-width="2" stroke="#000" transform="translate(120)">
		<circle cx="30" cy="30" r="29" fill="none" />
		<path d="M 30,45 L 30,22 A 7,7 0,0,0 23,15 L 14,15 A 3,3 0,0,0 11,18 L 11,42 A 3,3 0,0,0 14,45 L 46,45 A 3,3 0,0,0 49,42 L 49,18 A 3,3 0,0,0 46,15 L 37,15 A 7,7 0,0,0 30,22" fill="#eee" />
	</g>
	<g stroke-width="2" stroke="#000" transform="translate(180)">
		<circle cx="30" cy="30" r="29" fill="none" />
		<rect x="15" y="18" width="30" height="24" rx="3" fill="#eee" />
		<circle stroke-width="1" cx="37" cy="25" r="4" fill="#fff" />
		<path stroke-width="1" d="M 15,34 C 24,25 35,38 45,32" fill="none" />
	</g>
</svg>
